M48
; FORMAT={-:-/ absolute / metric / decimal}
; #@! TF.GenerationSoftware,Kicad,Pcbnew,10.0.4
; #@! TF.FileFunction,MixedPlating,1,2
FMAT,2
METRIC
; #@! TA.AperFunction,Plated,PTH,ViaDrill
T1C0.400
; #@! TA.AperFunction,Plated,PTH,ComponentDrill
T2C0.800
; #@! TA.AperFunction,Plated,PTH,ComponentDrill
T3C0.813
; #@! TA.AperFunction,Plated,PTH,ComponentDrill
T4C1.000
; #@! TA.AperFunction,Plated,PTH,ComponentDrill
T5C1.001
; #@! TA.AperFunction,Plated,PTH,ComponentDrill
T6C1.016
; #@! TA.AperFunction,Plated,PTH,ComponentDrill
T7C1.041
; #@! TA.AperFunction,Plated,PTH,ComponentDrill
T8C1.300
; #@! TA.AperFunction,Plated,PTH,ComponentDrill
T9C1.499
; #@! TA.AperFunction,Plated,PTH,ComponentDrill
T10C1.501
; #@! TA.AperFunction,Plated,PTH,ComponentDrill
T11C1.575
; #@! TA.AperFunction,Plated,PTH,ComponentDrill
T12C2.400
; #@! TA.AperFunction,Plated,PTH,ComponentDrill
T13C2.600
; #@! TA.AperFunction,Plated,PTH,ComponentDrill
T14C2.667
; #@! TA.AperFunction,Plated,PTH,ComponentDrill
T15C3.048
; #@! TA.AperFunction,Plated,PTH,ComponentDrill
T16C3.051
; #@! TA.AperFunction,Plated,PTH,ComponentDrill
T17C3.100
; #@! TA.AperFunction,NonPlated,NPTH,ComponentDrill
T18C1.702
; #@! TA.AperFunction,NonPlated,NPTH,ComponentDrill
T19C3.048
; #@! TA.AperFunction,NonPlated,NPTH,ComponentDrill
T20C3.988
%
G90
G05
T1
X13.652Y-57.15
X18.425Y-50.175
X20.32Y-45.085
X21.272Y-40.64
X21.272Y-44.133
X25.4Y-34.29
X25.4Y-114.3
X27.305Y-49.53
X27.94Y-40.64
X27.94Y-44.45
X28.258Y-55.88
X28.258Y-58.42
X28.258Y-60.96
X28.258Y-63.5
X28.575Y-73.66
X28.892Y-47.307
X29.845Y-31.115
X31.115Y-34.29
X31.115Y-44.45
X31.115Y-57.785
X31.115Y-60.96
X31.115Y-63.5
X31.115Y-66.04
X35.56Y-92.71
X35.877Y-34.29
X36.195Y-53.34
X36.195Y-62.865
X36.195Y-66.04
X36.195Y-68.58
X36.195Y-71.12
X36.195Y-80.328
X36.83Y-92.71
X38.1Y-40.64
X38.1Y-92.71
X39.37Y-89.535
X40.005Y-48.26
X40.64Y-34.29
X41.593Y-24.13
X44.45Y-55.562
X44.45Y-114.3
X44.767Y-24.13
X45.402Y-53.34
X45.72Y-85.09
X46.355Y-51.435
X46.99Y-89.535
X50.165Y-77.153
X50.8Y-67.31
X53.213Y-54.165
X53.975Y-41.275
X54.61Y-50.482
X56.515Y-80.01
X57.467Y-34.29
X58.102Y-54.927
X58.12Y-58.755
X60.008Y-135.572
X60.96Y-63.817
X61.912Y-66.04
X61.912Y-34.29
X63.5Y-114.3
X68.58Y-7.302
X69.215Y-85.09
X71.12Y-46.99
X72.707Y-23.495
X72.707Y-49.847
X73.66Y-67.627
X74.295Y-146.05
X74.612Y-47.625
X75.882Y-61.912
X76.835Y-63.817
X79.375Y-62.865
X80.328Y-59.69
X81.266Y-57.472
X81.28Y-51.117
X82.223Y-55.572
X82.55Y-81.28
X82.55Y-114.3
X83.82Y-7.302
X86.042Y-45.72
X88.265Y-55.88
X88.592Y-47.635
X90.17Y-55.89
X93.345Y-120.65
X95.567Y-55.88
X95.567Y-69.85
X96.837Y-152.4
X98.425Y-60.96
X100.965Y-33.02
X101.6Y-114.3
X102.87Y-61.595
X102.87Y-74.93
X105.41Y-53.34
X106.68Y-65.405
X107.632Y-74.93
X110.172Y-143.827
X113.983Y-57.468
X113.983Y-78.422
X115.57Y-89.535
X115.887Y-152.4
X118.427Y-46.99
X118.427Y-51.117
X118.427Y-77.47
X119.38Y-26.67
X126.047Y-77.47
X126.365Y-69.85
X127.0Y-48.26
X130.175Y-148.59
X130.175Y-152.4
X132.08Y-19.685
X133.35Y-35.877
X133.985Y-130.81
X137.487Y-33.03
X138.112Y-64.77
X138.43Y-201.93
X141.922Y-36.512
X142.24Y-71.12
X143.192Y-39.052
X143.51Y-133.985
X144.78Y-44.45
X145.097Y-41.593
X146.05Y-62.547
X147.955Y-59.69
X149.225Y-152.4
X149.86Y-57.15
X151.765Y-54.61
X153.67Y-44.45
X156.21Y-96.52
X157.162Y-46.99
X157.788Y-75.575
X157.797Y-49.53
X158.433Y-52.07
X159.067Y-64.135
X159.702Y-67.945
X160.338Y-75.248
X160.972Y-58.102
X161.29Y-73.66
X164.465Y-111.125
X166.433Y-31.687
X167.64Y-29.21
X170.498Y-110.807
X171.45Y-24.13
X172.72Y-22.86
X172.72Y-58.42
X173.355Y-77.47
X173.99Y-56.515
X174.308Y-44.133
X174.625Y-38.1
X175.26Y-53.34
X175.895Y-80.01
X176.53Y-51.117
X178.752Y-47.942
X180.657Y-60.642
X180.658Y-54.61
X181.292Y-40.64
X181.927Y-51.752
X181.927Y-66.358
X183.197Y-51.752
X183.832Y-63.817
X186.055Y-50.165
X188.278Y-82.55
X189.23Y-56.515
X189.547Y-20.32
X189.865Y-38.1
X191.135Y-52.07
X191.77Y-53.975
X192.722Y-72.707
X193.675Y-62.547
X195.58Y-55.562
X195.58Y-57.467
X196.532Y-58.42
X197.485Y-60.642
X198.438Y-63.5
X199.39Y-66.04
X200.343Y-51.752
X201.93Y-76.2
X202.565Y-32.067
X202.865Y-53.64
X205.423Y-41.275
X211.137Y-152.4
X221.297Y-77.47
X221.297Y-81.28
X224.79Y-74.295
X225.425Y-152.4
X226.377Y-52.705
X229.245Y-85.09
X232.41Y-40.64
X233.68Y-71.12
X233.68Y-72.39
X234.94Y-62.865
X234.95Y-60.325
X234.95Y-65.405
X234.95Y-67.945
X234.95Y-71.12
X235.585Y-58.42
X235.903Y-80.328
X238.76Y-49.53
X240.03Y-22.86
X240.03Y-76.2
X241.617Y-74.612
X242.887Y-73.343
X244.167Y-72.063
X244.792Y-70.167
X249.555Y-73.977
X249.555Y-79.692
X250.19Y-69.215
X251.46Y-54.927
X253.417Y-76.2
X254.0Y-54.927
T2
X22.88Y-27.94
X25.38Y-27.94
X31.77Y-27.94
X34.27Y-27.94
X40.66Y-27.94
X43.16Y-27.94
X60.98Y-10.16
X60.98Y-17.78
X63.48Y-10.16
X63.48Y-17.78
X221.0Y-11.43
X223.5Y-11.43
T3
X10.16Y-21.59
X10.16Y-26.67
X10.16Y-29.21
X10.16Y-31.75
X10.16Y-34.29
X10.16Y-36.83
X10.16Y-39.37
X10.16Y-41.91
X10.16Y-52.07
X10.16Y-54.61
X10.16Y-57.15
X10.16Y-59.69
X10.16Y-62.23
X10.16Y-64.77
X10.16Y-67.31
X10.16Y-69.85
X11.43Y-46.99
X11.43Y-74.93
X11.43Y-85.09
X11.529Y-80.01
X15.24Y-21.59
X16.411Y-80.01
X16.51Y-46.99
X16.51Y-74.93
X16.51Y-85.09
X17.78Y-26.67
X17.78Y-29.21
X17.78Y-31.75
X17.78Y-34.29
X17.78Y-36.83
X17.78Y-39.37
X17.78Y-41.91
X17.78Y-52.07
X17.78Y-54.61
X17.78Y-57.15
X17.78Y-59.69
X17.78Y-62.23
X17.78Y-64.77
X17.78Y-67.31
X17.78Y-69.85
X19.05Y-16.51
X19.05Y-20.32
X21.59Y-20.32
X22.86Y-54.61
X22.86Y-59.69
X22.86Y-67.31
X22.86Y-74.93
X24.13Y-16.51
X24.13Y-20.32
X25.4Y-36.83
X25.4Y-39.37
X25.4Y-41.91
X25.4Y-44.45
X25.4Y-46.99
X25.4Y-49.53
X25.4Y-52.07
X25.4Y-54.61
X25.4Y-57.15
X25.4Y-59.69
X25.4Y-62.23
X25.4Y-64.77
X25.4Y-67.31
X25.4Y-69.85
X25.4Y-72.39
X25.4Y-74.93
X25.4Y-77.47
X25.4Y-80.01
X25.4Y-82.55
X25.4Y-85.09
X40.64Y-36.83
X40.64Y-39.37
X40.64Y-41.91
X40.64Y-44.45
X40.64Y-46.99
X40.64Y-49.53
X40.64Y-52.07
X40.64Y-54.61
X40.64Y-57.15
X40.64Y-59.69
X40.64Y-62.23
X40.64Y-64.77
X40.64Y-67.31
X40.64Y-69.85
X40.64Y-72.39
X40.64Y-74.93
X40.64Y-77.47
X40.64Y-80.01
X40.64Y-82.55
X40.64Y-85.09
X43.18Y-36.83
X43.18Y-41.91
X43.18Y-54.61
X43.18Y-59.69
X48.26Y-19.05
X48.26Y-21.59
X48.26Y-24.13
X48.26Y-26.67
X48.26Y-29.21
X48.26Y-31.75
X48.26Y-34.29
X48.26Y-36.83
X48.26Y-39.37
X48.26Y-41.91
X48.26Y-46.99
X48.26Y-52.07
X48.26Y-54.61
X48.26Y-57.15
X48.26Y-59.69
X48.26Y-62.23
X48.26Y-64.77
X48.26Y-67.31
X48.26Y-69.85
X48.26Y-72.39
X48.26Y-74.93
X48.26Y-77.47
X48.26Y-80.01
X48.26Y-82.55
X48.26Y-85.09
X53.34Y-46.99
X53.34Y-90.17
X55.88Y-19.05
X55.88Y-21.59
X55.88Y-24.13
X55.88Y-26.67
X55.88Y-29.21
X55.88Y-31.75
X55.88Y-34.29
X55.88Y-36.83
X55.88Y-39.37
X55.88Y-41.91
X58.42Y-90.17
X63.5Y-26.67
X63.5Y-29.21
X63.5Y-31.75
X63.5Y-34.29
X63.5Y-36.83
X63.5Y-39.37
X63.5Y-41.91
X63.5Y-46.99
X63.5Y-52.07
X63.5Y-54.61
X63.5Y-57.15
X63.5Y-59.69
X63.5Y-62.23
X63.5Y-64.77
X63.5Y-67.31
X63.5Y-69.85
X63.5Y-72.39
X63.5Y-74.93
X63.5Y-77.47
X63.5Y-80.01
X63.5Y-82.55
X63.5Y-85.09
X68.58Y-46.99
X71.12Y-26.67
X71.12Y-29.21
X71.12Y-31.75
X71.12Y-34.29
X71.12Y-36.83
X71.12Y-39.37
X71.12Y-41.91
X71.12Y-52.07
X71.12Y-54.61
X71.12Y-57.15
X71.12Y-59.69
X71.12Y-62.23
X71.12Y-64.77
X71.12Y-67.31
X71.12Y-69.85
X71.12Y-72.39
X71.12Y-74.93
X71.12Y-77.47
X71.12Y-80.01
X71.12Y-82.55
X71.12Y-85.09
X76.2Y-90.17
X78.74Y-24.13
X78.74Y-26.67
X78.74Y-29.21
X78.74Y-31.75
X78.74Y-34.29
X78.74Y-36.83
X78.74Y-39.37
X78.74Y-41.91
X78.74Y-46.99
X81.28Y-90.17
X83.82Y-46.99
X86.36Y-24.13
X86.36Y-26.67
X86.36Y-29.21
X86.36Y-31.75
X86.36Y-34.29
X86.36Y-36.83
X86.36Y-39.37
X86.36Y-41.91
X86.36Y-52.07
X86.36Y-54.61
X86.36Y-57.15
X86.36Y-59.69
X86.36Y-62.23
X86.36Y-64.77
X86.36Y-67.31
X86.36Y-69.85
X86.36Y-72.39
X86.36Y-74.93
X86.36Y-77.47
X86.36Y-80.01
X86.36Y-82.55
X86.36Y-85.09
X88.9Y-29.21
X90.17Y-31.75
X93.98Y-36.83
X93.98Y-39.37
X93.98Y-41.91
X93.98Y-44.45
X93.98Y-46.99
X93.98Y-49.53
X93.98Y-52.07
X93.98Y-54.61
X93.98Y-57.15
X93.98Y-59.69
X93.98Y-62.23
X93.98Y-64.77
X93.98Y-67.31
X93.98Y-69.85
X93.98Y-72.39
X93.98Y-74.93
X93.98Y-77.47
X93.98Y-80.01
X93.98Y-82.55
X93.98Y-85.09
X95.25Y-31.75
X96.52Y-29.21
X99.06Y-29.21
X99.06Y-31.75
X99.06Y-90.17
X104.14Y-29.21
X104.14Y-31.75
X104.14Y-90.17
X106.68Y-29.21
X107.95Y-31.75
X109.22Y-36.83
X109.22Y-39.37
X109.22Y-41.91
X109.22Y-44.45
X109.22Y-46.99
X109.22Y-49.53
X109.22Y-52.07
X109.22Y-54.61
X109.22Y-57.15
X109.22Y-59.69
X109.22Y-62.23
X109.22Y-64.77
X109.22Y-67.31
X109.22Y-69.85
X109.22Y-72.39
X109.22Y-74.93
X109.22Y-77.47
X109.22Y-80.01
X109.22Y-82.55
X109.22Y-85.09
X113.03Y-31.75
X114.3Y-29.21
X114.3Y-36.83
X114.3Y-39.37
X114.3Y-41.91
X114.3Y-44.45
X114.3Y-46.99
X114.3Y-49.53
X116.84Y-8.89
X116.84Y-13.97
X116.84Y-16.51
X116.84Y-19.05
X116.84Y-21.59
X116.84Y-26.67
X116.84Y-29.21
X116.84Y-31.75
X116.84Y-36.83
X116.84Y-39.37
X116.84Y-41.91
X116.84Y-44.45
X116.84Y-46.99
X116.84Y-49.53
X116.84Y-52.07
X116.84Y-54.61
X116.84Y-57.15
X116.84Y-59.69
X116.84Y-62.23
X116.84Y-64.77
X116.84Y-67.31
X116.84Y-69.85
X116.84Y-72.39
X116.84Y-74.93
X116.84Y-77.47
X116.84Y-80.01
X116.84Y-82.55
X116.84Y-85.09
X121.92Y-8.89
X121.92Y-26.67
X121.92Y-90.17
X123.19Y-101.6
X123.19Y-104.14
X123.19Y-106.68
X123.19Y-109.22
X124.46Y-13.97
X124.46Y-16.51
X124.46Y-19.05
X124.46Y-21.59
X124.46Y-29.21
X124.46Y-31.75
X127.0Y-29.21
X127.0Y-31.75
X127.0Y-90.17
X128.27Y-26.67
X130.81Y-101.6
X130.81Y-104.14
X130.81Y-106.68
X130.81Y-109.22
X132.08Y-36.83
X132.08Y-39.37
X132.08Y-41.91
X132.08Y-44.45
X132.08Y-46.99
X132.08Y-49.53
X132.08Y-52.07
X132.08Y-54.61
X132.08Y-57.15
X132.08Y-59.69
X132.08Y-62.23
X132.08Y-64.77
X132.08Y-67.31
X132.08Y-69.85
X132.08Y-72.39
X132.08Y-74.93
X132.08Y-77.47
X132.08Y-80.01
X132.08Y-82.55
X132.08Y-85.09
X133.35Y-26.67
X134.62Y-29.21
X134.62Y-31.75
X134.62Y-36.83
X134.62Y-39.37
X134.62Y-41.91
X134.62Y-44.45
X134.62Y-46.99
X134.62Y-49.53
X134.62Y-52.07
X134.62Y-54.61
X134.62Y-57.15
X134.62Y-59.69
X134.62Y-62.23
X134.62Y-64.77
X139.7Y-36.83
X139.7Y-39.37
X139.7Y-41.91
X139.7Y-44.45
X139.7Y-46.99
X139.7Y-49.53
X139.7Y-52.07
X139.7Y-54.61
X139.7Y-57.15
X139.7Y-59.69
X139.7Y-62.23
X139.7Y-64.77
X139.7Y-67.31
X139.7Y-69.85
X139.7Y-72.39
X139.7Y-74.93
X139.7Y-77.47
X139.7Y-80.01
X139.7Y-82.55
X139.7Y-85.09
X144.78Y-90.17
X144.78Y-101.6
X144.78Y-104.14
X144.78Y-106.68
X144.78Y-109.22
X149.86Y-90.17
X152.4Y-101.6
X152.4Y-104.14
X152.4Y-106.68
X152.4Y-109.22
X154.94Y-36.83
X154.94Y-39.37
X154.94Y-41.91
X154.94Y-44.45
X154.94Y-46.99
X154.94Y-49.53
X154.94Y-52.07
X154.94Y-54.61
X154.94Y-57.15
X154.94Y-59.69
X154.94Y-62.23
X154.94Y-64.77
X154.94Y-67.31
X154.94Y-69.85
X154.94Y-72.39
X154.94Y-74.93
X154.94Y-77.47
X154.94Y-80.01
X154.94Y-82.55
X154.94Y-85.09
X162.56Y-26.67
X162.56Y-29.21
X162.56Y-31.75
X162.56Y-34.29
X162.56Y-36.83
X162.56Y-39.37
X162.56Y-41.91
X162.56Y-46.99
X162.56Y-52.07
X162.56Y-54.61
X162.56Y-57.15
X162.56Y-59.69
X162.56Y-62.23
X162.56Y-64.77
X162.56Y-67.31
X162.56Y-69.85
X162.56Y-72.39
X162.56Y-74.93
X162.56Y-77.47
X162.56Y-80.01
X162.56Y-82.55
X162.56Y-85.09
X167.64Y-46.99
X167.64Y-90.17
X170.18Y-26.67
X170.18Y-29.21
X170.18Y-31.75
X170.18Y-34.29
X170.18Y-36.83
X170.18Y-39.37
X170.18Y-41.91
X172.72Y-90.17
X177.8Y-24.13
X177.8Y-26.67
X177.8Y-29.21
X177.8Y-31.75
X177.8Y-34.29
X177.8Y-36.83
X177.8Y-39.37
X177.8Y-41.91
X177.8Y-46.99
X177.8Y-52.07
X177.8Y-54.61
X177.8Y-57.15
X177.8Y-59.69
X177.8Y-62.23
X177.8Y-64.77
X177.8Y-67.31
X177.8Y-69.85
X177.8Y-72.39
X177.8Y-74.93
X177.8Y-77.47
X177.8Y-80.01
X177.8Y-82.55
X177.8Y-85.09
X182.88Y-46.99
X185.42Y-24.13
X185.42Y-26.67
X185.42Y-29.21
X185.42Y-31.75
X185.42Y-34.29
X185.42Y-36.83
X185.42Y-39.37
X185.42Y-41.91
X185.42Y-57.15
X185.42Y-59.69
X185.42Y-62.23
X185.42Y-64.77
X185.42Y-67.31
X185.42Y-69.85
X185.42Y-72.39
X185.42Y-74.93
X185.42Y-77.47
X185.42Y-80.01
X185.42Y-82.55
X185.42Y-85.09
X190.5Y-90.17
X193.04Y-20.32
X193.04Y-24.13
X193.04Y-26.67
X193.04Y-29.21
X193.04Y-31.75
X193.04Y-35.56
X193.04Y-38.1
X193.04Y-41.91
X193.04Y-44.45
X193.04Y-46.99
X193.04Y-49.53
X193.04Y-53.34
X195.58Y-90.17
X198.12Y-20.32
X198.12Y-35.56
X198.12Y-38.1
X198.12Y-53.34
X200.66Y-24.13
X200.66Y-26.67
X200.66Y-29.21
X200.66Y-31.75
X200.66Y-41.91
X200.66Y-44.45
X200.66Y-46.99
X200.66Y-49.53
X200.66Y-57.15
X200.66Y-59.69
X200.66Y-62.23
X200.66Y-64.77
X200.66Y-67.31
X200.66Y-69.85
X200.66Y-72.39
X200.66Y-74.93
X200.66Y-77.47
X200.66Y-80.01
X200.66Y-82.55
X200.66Y-85.09
X205.105Y-104.775
X207.645Y-104.775
X208.28Y-36.83
X208.28Y-39.37
X208.28Y-41.91
X208.28Y-44.45
X208.28Y-46.99
X208.28Y-49.53
X208.28Y-52.07
X208.28Y-54.61
X208.28Y-57.15
X208.28Y-59.69
X208.28Y-62.23
X208.28Y-64.77
X208.28Y-67.31
X208.28Y-69.85
X208.28Y-72.39
X208.28Y-74.93
X208.28Y-77.47
X208.28Y-80.01
X208.28Y-82.55
X208.28Y-85.09
X209.55Y-30.48
X212.09Y-30.48
X212.09Y-102.87
X212.09Y-105.41
X213.36Y-90.17
X214.63Y-30.48
X218.44Y-19.05
X218.44Y-21.59
X218.44Y-26.67
X218.44Y-29.21
X218.44Y-31.75
X218.44Y-90.17
X219.71Y-16.51
X219.71Y-102.87
X219.71Y-105.41
X223.52Y-36.83
X223.52Y-39.37
X223.52Y-41.91
X223.52Y-44.45
X223.52Y-46.99
X223.52Y-49.53
X223.52Y-52.07
X223.52Y-54.61
X223.52Y-57.15
X223.52Y-59.69
X223.52Y-62.23
X223.52Y-64.77
X223.52Y-67.31
X223.52Y-69.85
X223.52Y-72.39
X223.52Y-74.93
X223.52Y-77.47
X223.52Y-80.01
X223.52Y-82.55
X223.52Y-85.09
X224.155Y-104.775
X224.79Y-16.51
X226.06Y-19.05
X226.06Y-21.59
X226.06Y-26.67
X226.06Y-29.21
X226.06Y-31.75
X226.695Y-104.775
X231.14Y-26.67
X231.14Y-29.21
X231.14Y-31.75
X231.14Y-34.29
X231.14Y-36.83
X231.14Y-39.37
X231.14Y-41.91
X231.14Y-46.99
X231.14Y-52.07
X231.14Y-54.61
X231.14Y-57.15
X231.14Y-59.69
X231.14Y-62.23
X231.14Y-64.77
X231.14Y-67.31
X231.14Y-69.85
X231.14Y-72.39
X231.14Y-74.93
X231.14Y-77.47
X231.14Y-80.01
X231.14Y-82.55
X231.14Y-85.09
X236.22Y-46.99
X236.22Y-90.17
X238.76Y-26.67
X238.76Y-29.21
X238.76Y-31.75
X238.76Y-34.29
X238.76Y-36.83
X238.76Y-39.37
X238.76Y-41.91
X241.3Y-90.17
X243.84Y-8.89
X245.11Y-13.97
X245.11Y-17.78
X246.38Y-21.59
X246.38Y-26.67
X246.38Y-29.21
X246.38Y-31.75
X246.38Y-34.29
X246.38Y-36.83
X246.38Y-39.37
X246.38Y-41.91
X246.38Y-46.99
X246.38Y-52.07
X246.38Y-54.61
X246.38Y-57.15
X246.38Y-59.69
X246.38Y-62.23
X246.38Y-64.77
X246.38Y-67.31
X246.38Y-69.85
X246.38Y-72.39
X246.38Y-74.93
X246.38Y-77.47
X246.38Y-80.01
X246.38Y-82.55
X246.38Y-85.09
X247.65Y-17.78
X250.19Y-13.97
X250.19Y-17.78
X251.46Y-8.89
X251.46Y-46.99
X251.46Y-57.15
X251.46Y-59.69
X251.46Y-62.23
X251.46Y-64.77
X251.46Y-67.31
X251.46Y-69.85
X251.46Y-72.39
X251.46Y-74.93
X251.46Y-77.47
X251.46Y-80.01
X254.0Y-21.59
X254.0Y-26.67
X254.0Y-29.21
X254.0Y-31.75
X254.0Y-34.29
X254.0Y-36.83
X254.0Y-39.37
X254.0Y-41.91
X254.0Y-57.15
X254.0Y-59.69
X254.0Y-62.23
X254.0Y-64.77
X254.0Y-67.31
X254.0Y-69.85
X254.0Y-72.39
X254.0Y-74.93
X254.0Y-77.47
X254.0Y-80.01
X254.0Y-82.55
X254.0Y-85.09
X254.559Y-13.97
X256.54Y-90.17
X261.061Y-13.97
X261.62Y-26.67
X261.62Y-29.21
X261.62Y-31.75
X261.62Y-34.29
X261.62Y-36.83
X261.62Y-39.37
X261.62Y-41.91
X261.62Y-46.99
X261.62Y-90.17
X266.7Y-46.99
X269.24Y-26.67
X269.24Y-29.21
X269.24Y-31.75
X269.24Y-34.29
X269.24Y-36.83
X269.24Y-39.37
X269.24Y-41.91
X269.24Y-57.15
X269.24Y-59.69
X269.24Y-62.23
X269.24Y-64.77
X269.24Y-67.31
X269.24Y-69.85
X269.24Y-72.39
X269.24Y-74.93
X269.24Y-77.47
X269.24Y-80.01
X269.24Y-82.55
X269.24Y-85.09
T4
X68.58Y-10.16
X71.12Y-10.16
X73.66Y-10.16
X78.74Y-10.16
X81.28Y-10.16
X83.82Y-10.16
X86.36Y-10.16
T5
X19.342Y-8.931
X23.843Y-8.931
T6
X48.26Y-8.89
X50.8Y-8.89
X53.34Y-8.89
X68.58Y-19.685
X68.58Y-72.39
X68.58Y-74.93
X68.58Y-77.47
X68.58Y-80.01
X71.12Y-19.685
X73.66Y-19.685
X76.2Y-19.685
X78.74Y-19.685
X81.28Y-19.685
X83.82Y-19.685
X86.36Y-19.685
X91.44Y-36.83
X91.44Y-39.37
X91.44Y-41.91
X91.44Y-44.45
X91.44Y-46.99
X91.44Y-49.53
X91.44Y-52.07
X91.44Y-54.61
X91.44Y-57.15
X91.44Y-59.69
X91.44Y-62.23
X91.44Y-64.77
X91.44Y-67.31
X91.44Y-69.85
X91.44Y-72.39
X91.44Y-74.93
X91.44Y-77.47
X91.44Y-80.01
X91.44Y-82.55
X91.44Y-85.09
X133.35Y-11.43
X133.35Y-13.97
X135.89Y-11.43
X135.89Y-13.97
X138.43Y-11.43
X138.43Y-13.97
X140.97Y-11.43
X140.97Y-13.97
X143.51Y-11.43
X143.51Y-13.97
X146.05Y-11.43
X146.05Y-13.97
X148.59Y-11.43
X148.59Y-13.97
X151.13Y-11.43
X151.13Y-13.97
X153.67Y-11.43
X153.67Y-13.97
X156.21Y-11.43
X156.21Y-13.97
X158.75Y-11.43
X158.75Y-13.97
X161.29Y-11.43
X161.29Y-13.97
X163.83Y-11.43
X163.83Y-13.97
X228.6Y-72.39
X228.6Y-74.93
X228.6Y-77.47
X228.6Y-80.01
T7
X191.364Y-17.297
X192.735Y-14.453
X194.107Y-17.297
X195.478Y-14.453
X196.85Y-17.297
X198.247Y-14.453
X199.593Y-17.297
X200.965Y-14.453
X202.336Y-17.297
T8
X95.37Y-21.55
X97.87Y-19.05
X100.37Y-9.05
X100.37Y-21.55
X102.87Y-19.05
X102.87Y-24.05
X105.37Y-9.05
X105.37Y-21.55
X107.87Y-19.05
X110.37Y-21.55
T9
X12.065Y-102.235
X12.065Y-121.285
X12.065Y-178.435
X14.605Y-197.485
X18.415Y-99.695
X18.415Y-118.745
X18.415Y-175.895
X20.955Y-194.945
X21.59Y-140.335
X26.352Y-159.385
X27.94Y-137.795
X31.115Y-102.235
X31.115Y-121.285
X31.115Y-178.435
X32.703Y-156.845
X37.465Y-99.695
X37.465Y-118.745
X37.465Y-175.895
X38.417Y-197.485
X40.64Y-140.335
X44.767Y-194.945
X45.402Y-159.385
X46.99Y-137.795
X50.165Y-102.235
X50.165Y-121.285
X50.165Y-178.435
X51.752Y-156.845
X56.515Y-99.695
X56.515Y-118.745
X56.515Y-175.895
X59.69Y-140.335
X64.453Y-159.385
X66.04Y-137.795
X69.215Y-102.235
X69.215Y-121.285
X69.215Y-178.435
X70.802Y-156.845
X75.565Y-99.695
X75.565Y-118.745
X75.565Y-175.895
X78.74Y-140.335
X83.502Y-159.385
X85.09Y-137.795
X88.265Y-102.235
X88.265Y-121.285
X88.265Y-178.435
X89.852Y-156.845
X94.615Y-99.695
X94.615Y-118.745
X94.615Y-175.895
X97.79Y-140.335
X102.552Y-159.385
X104.14Y-137.795
X107.315Y-102.235
X107.315Y-121.285
X107.315Y-178.435
X108.902Y-156.845
X113.665Y-99.695
X113.665Y-118.745
X113.665Y-175.895
X116.84Y-140.335
X121.602Y-159.385
X123.19Y-137.795
X126.365Y-121.285
X126.365Y-178.435
X126.365Y-197.485
X127.953Y-156.845
X132.715Y-118.745
X132.715Y-175.895
X132.715Y-194.945
X135.89Y-140.335
X140.653Y-159.385
X142.24Y-137.795
X145.415Y-121.285
X145.415Y-178.435
X147.002Y-156.845
X151.765Y-118.745
X151.765Y-175.895
X154.94Y-140.335
X159.702Y-159.385
X161.29Y-137.795
X164.465Y-121.285
X164.465Y-178.435
X166.052Y-156.845
X170.815Y-118.745
X170.815Y-175.895
X173.99Y-140.335
X178.752Y-159.385
X180.34Y-137.795
X183.515Y-121.285
X183.515Y-178.435
X185.102Y-156.845
X189.865Y-118.745
X189.865Y-175.895
X193.04Y-140.335
X197.802Y-159.385
X199.39Y-137.795
X202.565Y-121.285
X202.565Y-178.435
X204.153Y-156.845
X208.915Y-118.745
X208.915Y-175.895
X212.09Y-140.335
X216.852Y-159.385
X218.44Y-137.795
X221.615Y-121.285
X221.615Y-178.435
X221.615Y-197.485
X223.202Y-156.845
X227.965Y-118.745
X227.965Y-175.895
X227.965Y-194.945
X231.14Y-140.335
X237.49Y-137.795
X240.665Y-102.235
X240.665Y-121.285
X240.665Y-178.435
X240.665Y-197.485
X247.015Y-99.695
X247.015Y-118.745
X247.015Y-175.895
X247.015Y-194.945
X247.809Y-159.385
X254.159Y-156.845
X254.952Y-140.335
X259.715Y-102.235
X259.715Y-121.285
X259.715Y-178.435
X259.715Y-197.485
X261.303Y-137.795
X266.065Y-99.695
X266.065Y-118.745
X266.065Y-175.895
X266.065Y-194.945
T10
X18.092Y-11.43
X25.093Y-11.43
T11
X234.95Y-15.24
T12
X95.37Y-14.05
X110.37Y-14.05
T13
X32.029Y-16.97
X36.83Y-13.97
T14
X229.87Y-15.24
X234.95Y-10.16
X240.03Y-15.24
T15
X11.43Y-11.43
X11.43Y-91.44
X62.23Y-204.47
X139.7Y-110.49
X207.01Y-204.47
X267.97Y-11.43
X267.97Y-91.44
T16
X184.356Y-15.875
X209.344Y-15.875
T17
X36.83Y-20.17
T18
X10.795Y-104.775
X10.795Y-123.825
X10.795Y-180.975
X13.335Y-200.025
X20.32Y-142.875
X20.955Y-104.775
X20.955Y-123.825
X20.955Y-180.975
X23.495Y-200.025
X25.082Y-161.925
X29.845Y-104.775
X29.845Y-123.825
X29.845Y-180.975
X30.48Y-142.875
X35.242Y-161.925
X37.148Y-200.025
X39.37Y-142.875
X40.005Y-104.775
X40.005Y-123.825
X40.005Y-180.975
X44.133Y-161.925
X47.307Y-200.025
X48.895Y-104.775
X48.895Y-123.825
X48.895Y-180.975
X49.53Y-142.875
X54.292Y-161.925
X58.42Y-142.875
X59.055Y-104.775
X59.055Y-123.825
X59.055Y-180.975
X63.182Y-161.925
X67.945Y-104.775
X67.945Y-123.825
X67.945Y-180.975
X68.58Y-142.875
X73.343Y-161.925
X77.47Y-142.875
X78.105Y-104.775
X78.105Y-123.825
X78.105Y-180.975
X82.233Y-161.925
X86.995Y-104.775
X86.995Y-123.825
X86.995Y-180.975
X87.63Y-142.875
X92.392Y-161.925
X96.52Y-142.875
X97.155Y-104.775
X97.155Y-123.825
X97.155Y-180.975
X101.282Y-161.925
X106.045Y-104.775
X106.045Y-123.825
X106.045Y-180.975
X106.68Y-142.875
X111.442Y-161.925
X115.57Y-142.875
X116.205Y-104.775
X116.205Y-123.825
X116.205Y-180.975
X120.332Y-161.925
X125.095Y-123.825
X125.095Y-180.975
X125.095Y-200.025
X125.73Y-142.875
X130.493Y-161.925
X134.62Y-142.875
X135.255Y-123.825
X135.255Y-180.975
X135.255Y-200.025
X139.382Y-161.925
X144.145Y-123.825
X144.145Y-180.975
X144.78Y-142.875
X149.542Y-161.925
X153.67Y-142.875
X154.305Y-123.825
X154.305Y-180.975
X158.433Y-161.925
X163.195Y-123.825
X163.195Y-180.975
X163.83Y-142.875
X168.593Y-161.925
X172.72Y-142.875
X173.355Y-123.825
X173.355Y-180.975
X177.482Y-161.925
X182.245Y-123.825
X182.245Y-180.975
X182.88Y-142.875
X187.642Y-161.925
X191.77Y-142.875
X192.405Y-123.825
X192.405Y-180.975
X196.532Y-161.925
X201.295Y-123.825
X201.295Y-180.975
X201.93Y-142.875
X206.692Y-161.925
X210.82Y-142.875
X211.455Y-123.825
X211.455Y-180.975
X215.582Y-161.925
X220.345Y-123.825
X220.345Y-180.975
X220.345Y-200.025
X220.98Y-142.875
X225.742Y-161.925
X229.87Y-142.875
X230.505Y-123.825
X230.505Y-180.975
X230.505Y-200.025
X239.395Y-104.775
X239.395Y-123.825
X239.395Y-180.975
X239.395Y-200.025
X240.03Y-142.875
X246.539Y-161.925
X249.555Y-104.775
X249.555Y-123.825
X249.555Y-180.975
X249.555Y-200.025
X253.682Y-142.875
X256.699Y-161.925
X258.445Y-104.775
X258.445Y-123.825
X258.445Y-180.975
X258.445Y-200.025
X263.842Y-142.875
X268.605Y-104.775
X268.605Y-123.825
X268.605Y-180.975
X268.605Y-200.025
T19
X80.137Y-207.01
X180.213Y-207.01
X239.681Y-154.94
X263.557Y-154.94
T20
X15.875Y-104.775
X15.875Y-123.825
X15.875Y-180.975
X18.415Y-200.025
X25.4Y-142.875
X30.162Y-161.925
X34.925Y-104.775
X34.925Y-123.825
X34.925Y-180.975
X42.227Y-200.025
X44.45Y-142.875
X49.212Y-161.925
X53.975Y-104.775
X53.975Y-123.825
X53.975Y-180.975
X63.5Y-142.875
X68.263Y-161.925
X73.025Y-104.775
X73.025Y-123.825
X73.025Y-180.975
X80.137Y-191.77
X82.55Y-142.875
X87.312Y-161.925
X92.075Y-104.775
X92.075Y-123.825
X92.075Y-180.975
X101.6Y-142.875
X106.362Y-161.925
X111.125Y-104.775
X111.125Y-123.825
X111.125Y-180.975
X120.65Y-142.875
X125.412Y-161.925
X130.175Y-123.825
X130.175Y-180.975
X130.175Y-200.025
X139.7Y-142.875
X144.463Y-161.925
X149.225Y-123.825
X149.225Y-180.975
X158.75Y-142.875
X163.512Y-161.925
X168.275Y-123.825
X168.275Y-180.975
X177.8Y-142.875
X180.213Y-191.77
X182.562Y-161.925
X187.325Y-123.825
X187.325Y-180.975
X196.85Y-142.875
X201.612Y-161.925
X206.375Y-123.825
X206.375Y-180.975
X215.9Y-142.875
X220.662Y-161.925
X225.425Y-123.825
X225.425Y-180.975
X225.425Y-200.025
X234.95Y-142.875
X239.681Y-170.18
X244.475Y-104.775
X244.475Y-123.825
X244.475Y-180.975
X244.475Y-200.025
X251.619Y-161.925
X258.762Y-142.875
X263.525Y-104.775
X263.525Y-123.825
X263.525Y-180.975
X263.525Y-200.025
X263.557Y-170.18
M30
