ISO-10303-21;
HEADER;
FILE_DESCRIPTION(('FreeCAD Model'),'2;1');
FILE_NAME('Open CASCADE Shape Model','2026-09-07T21:17:19',('FreeCAD'),(
    'FreeCAD'),'Open CASCADE STEP processor 7.8','FreeCAD','Unknown');
FILE_SCHEMA(('AUTOMOTIVE_DESIGN { 1 0 10303 214 1 1 1 1 }'));
ENDSEC;
DATA;
#1 = APPLICATION_PROTOCOL_DEFINITION('international standard',
  'automotive_design',2000,#2);
#2 = APPLICATION_CONTEXT(
  'core data for automotive mechanical design processes');
#3 = SHAPE_DEFINITION_REPRESENTATION(#4,#10);
#4 = PRODUCT_DEFINITION_SHAPE('','',#5);
#5 = PRODUCT_DEFINITION('design','',#6,#9);
#6 = PRODUCT_DEFINITION_FORMATION('','',#7);
#7 = PRODUCT('Open CASCADE STEP translator 7.8 1',
  'Open CASCADE STEP translator 7.8 1','',(#8));
#8 = PRODUCT_CONTEXT('',#2,'mechanical');
#9 = PRODUCT_DEFINITION_CONTEXT('part definition',#2,'design');
#10 = SHAPE_REPRESENTATION('',(#11,#15,#153,#221,#289,#357,#425),#493);
#11 = AXIS2_PLACEMENT_3D('',#12,#13,#14);
#12 = CARTESIAN_POINT('',(0.,0.,0.));
#13 = DIRECTION('',(0.,0.,1.));
#14 = DIRECTION('',(1.,0.,-0.));
#15 = MANIFOLD_SOLID_BREP('',#16);
#16 = CLOSED_SHELL('',(#17,#53,#81,#109,#129,#141));
#17 = ADVANCED_FACE('',(#18),#48,.T.);
#18 = FACE_BOUND('',#19,.T.);
#19 = EDGE_LOOP('',(#20,#29,#36,#43));
#20 = ORIENTED_EDGE('',*,*,#21,.T.);
#21 = EDGE_CURVE('',#22,#24,#26,.T.);
#22 = VERTEX_POINT('',#23);
#23 = CARTESIAN_POINT('',(-2.298163,1.9231211,0.10925));
#24 = VERTEX_POINT('',#25);
#25 = CARTESIAN_POINT('',(-2.298163,1.9231211,11.20905));
#26 = B_SPLINE_CURVE_WITH_KNOTS('',1,(#27,#28),.UNSPECIFIED.,.F.,.F.,(2,
    2),(0.,10.16),.PIECEWISE_BEZIER_KNOTS.);
#27 = CARTESIAN_POINT('',(-2.298163,1.9231211,0.10925));
#28 = CARTESIAN_POINT('',(-2.298163,1.9231211,11.20905));
#29 = ORIENTED_EDGE('',*,*,#30,.T.);
#30 = EDGE_CURVE('',#24,#31,#33,.T.);
#31 = VERTEX_POINT('',#32);
#32 = CARTESIAN_POINT('',(19.551367,1.9231211,11.20905));
#33 = B_SPLINE_CURVE_WITH_KNOTS('',1,(#34,#35),.UNSPECIFIED.,.F.,.F.,(2,
    2),(0.,19.3),.PIECEWISE_BEZIER_KNOTS.);
#34 = CARTESIAN_POINT('',(-2.298163,1.9231211,11.20905));
#35 = CARTESIAN_POINT('',(19.551367,1.9231211,11.20905));
#36 = ORIENTED_EDGE('',*,*,#37,.F.);
#37 = EDGE_CURVE('',#38,#31,#40,.T.);
#38 = VERTEX_POINT('',#39);
#39 = CARTESIAN_POINT('',(19.551367,1.9231211,0.10925));
#40 = B_SPLINE_CURVE_WITH_KNOTS('',1,(#41,#42),.UNSPECIFIED.,.F.,.F.,(2,
    2),(0.,10.16),.PIECEWISE_BEZIER_KNOTS.);
#41 = CARTESIAN_POINT('',(19.551367,1.9231211,0.10925));
#42 = CARTESIAN_POINT('',(19.551367,1.9231211,11.20905));
#43 = ORIENTED_EDGE('',*,*,#44,.F.);
#44 = EDGE_CURVE('',#22,#38,#45,.T.);
#45 = B_SPLINE_CURVE_WITH_KNOTS('',1,(#46,#47),.UNSPECIFIED.,.F.,.F.,(2,
    2),(0.,19.3),.PIECEWISE_BEZIER_KNOTS.);
#46 = CARTESIAN_POINT('',(-2.298163,1.9231211,0.10925));
#47 = CARTESIAN_POINT('',(19.551367,1.9231211,0.10925));
#48 = B_SPLINE_SURFACE_WITH_KNOTS('',1,1,(
    (#49,#50)
    ,(#51,#52
    )),.UNSPECIFIED.,.F.,.F.,.F.,(2,2),(2,2),(0.,19.3),(-10.16,0.),
  .PIECEWISE_BEZIER_KNOTS.);
#49 = CARTESIAN_POINT('',(-2.298163,1.9231211,11.20905));
#50 = CARTESIAN_POINT('',(-2.298163,1.9231211,0.10925));
#51 = CARTESIAN_POINT('',(19.551367,1.9231211,11.20905));
#52 = CARTESIAN_POINT('',(19.551367,1.9231211,0.10925));
#53 = ADVANCED_FACE('',(#54),#76,.T.);
#54 = FACE_BOUND('',#55,.T.);
#55 = EDGE_LOOP('',(#56,#57,#64,#71));
#56 = ORIENTED_EDGE('',*,*,#37,.T.);
#57 = ORIENTED_EDGE('',*,*,#58,.T.);
#58 = EDGE_CURVE('',#31,#59,#61,.T.);
#59 = VERTEX_POINT('',#60);
#60 = CARTESIAN_POINT('',(19.551367,-7.2770419,11.20905));
#61 = B_SPLINE_CURVE_WITH_KNOTS('',1,(#62,#63),.UNSPECIFIED.,.F.,.F.,(2,
    2),(0.,6.09),.PIECEWISE_BEZIER_KNOTS.);
#62 = CARTESIAN_POINT('',(19.551367,1.9231211,11.20905));
#63 = CARTESIAN_POINT('',(19.551367,-7.2770419,11.20905));
#64 = ORIENTED_EDGE('',*,*,#65,.F.);
#65 = EDGE_CURVE('',#66,#59,#68,.T.);
#66 = VERTEX_POINT('',#67);
#67 = CARTESIAN_POINT('',(19.551367,-7.2770419,0.10925));
#68 = B_SPLINE_CURVE_WITH_KNOTS('',1,(#69,#70),.UNSPECIFIED.,.F.,.F.,(2,
    2),(0.,10.16),.PIECEWISE_BEZIER_KNOTS.);
#69 = CARTESIAN_POINT('',(19.551367,-7.2770419,0.10925));
#70 = CARTESIAN_POINT('',(19.551367,-7.2770419,11.20905));
#71 = ORIENTED_EDGE('',*,*,#72,.F.);
#72 = EDGE_CURVE('',#38,#66,#73,.T.);
#73 = B_SPLINE_CURVE_WITH_KNOTS('',1,(#74,#75),.UNSPECIFIED.,.F.,.F.,(2,
    2),(0.,6.09),.PIECEWISE_BEZIER_KNOTS.);
#74 = CARTESIAN_POINT('',(19.551367,1.9231211,0.10925));
#75 = CARTESIAN_POINT('',(19.551367,-7.2770419,0.10925));
#76 = B_SPLINE_SURFACE_WITH_KNOTS('',1,1,(
    (#77,#78)
    ,(#79,#80
    )),.UNSPECIFIED.,.F.,.F.,.F.,(2,2),(2,2),(0.,6.09),(-10.16,0.),
  .PIECEWISE_BEZIER_KNOTS.);
#77 = CARTESIAN_POINT('',(19.551367,1.9231211,11.20905));
#78 = CARTESIAN_POINT('',(19.551367,1.9231211,0.10925));
#79 = CARTESIAN_POINT('',(19.551367,-7.2770419,11.20905));
#80 = CARTESIAN_POINT('',(19.551367,-7.2770419,0.10925));
#81 = ADVANCED_FACE('',(#82),#104,.T.);
#82 = FACE_BOUND('',#83,.T.);
#83 = EDGE_LOOP('',(#84,#85,#92,#99));
#84 = ORIENTED_EDGE('',*,*,#65,.T.);
#85 = ORIENTED_EDGE('',*,*,#86,.T.);
#86 = EDGE_CURVE('',#59,#87,#89,.T.);
#87 = VERTEX_POINT('',#88);
#88 = CARTESIAN_POINT('',(-2.298163,-7.2770419,11.20905));
#89 = B_SPLINE_CURVE_WITH_KNOTS('',1,(#90,#91),.UNSPECIFIED.,.F.,.F.,(2,
    2),(0.,19.3),.PIECEWISE_BEZIER_KNOTS.);
#90 = CARTESIAN_POINT('',(19.551367,-7.2770419,11.20905));
#91 = CARTESIAN_POINT('',(-2.298163,-7.2770419,11.20905));
#92 = ORIENTED_EDGE('',*,*,#93,.F.);
#93 = EDGE_CURVE('',#94,#87,#96,.T.);
#94 = VERTEX_POINT('',#95);
#95 = CARTESIAN_POINT('',(-2.298163,-7.2770419,0.10925));
#96 = B_SPLINE_CURVE_WITH_KNOTS('',1,(#97,#98),.UNSPECIFIED.,.F.,.F.,(2,
    2),(0.,10.16),.PIECEWISE_BEZIER_KNOTS.);
#97 = CARTESIAN_POINT('',(-2.298163,-7.2770419,0.10925));
#98 = CARTESIAN_POINT('',(-2.298163,-7.2770419,11.20905));
#99 = ORIENTED_EDGE('',*,*,#100,.F.);
#100 = EDGE_CURVE('',#66,#94,#101,.T.);
#101 = B_SPLINE_CURVE_WITH_KNOTS('',1,(#102,#103),.UNSPECIFIED.,.F.,.F.,
  (2,2),(0.,19.3),.PIECEWISE_BEZIER_KNOTS.);
#102 = CARTESIAN_POINT('',(19.551367,-7.2770419,0.10925));
#103 = CARTESIAN_POINT('',(-2.298163,-7.2770419,0.10925));
#104 = B_SPLINE_SURFACE_WITH_KNOTS('',1,1,(
    (#105,#106)
    ,(#107,#108
    )),.UNSPECIFIED.,.F.,.F.,.F.,(2,2),(2,2),(0.,19.3),(-10.16,0.),
  .PIECEWISE_BEZIER_KNOTS.);
#105 = CARTESIAN_POINT('',(19.551367,-7.2770419,11.20905));
#106 = CARTESIAN_POINT('',(19.551367,-7.2770419,0.10925));
#107 = CARTESIAN_POINT('',(-2.298163,-7.2770419,11.20905));
#108 = CARTESIAN_POINT('',(-2.298163,-7.2770419,0.10925));
#109 = ADVANCED_FACE('',(#110),#124,.T.);
#110 = FACE_BOUND('',#111,.T.);
#111 = EDGE_LOOP('',(#112,#113,#118,#119));
#112 = ORIENTED_EDGE('',*,*,#93,.T.);
#113 = ORIENTED_EDGE('',*,*,#114,.T.);
#114 = EDGE_CURVE('',#87,#24,#115,.T.);
#115 = B_SPLINE_CURVE_WITH_KNOTS('',1,(#116,#117),.UNSPECIFIED.,.F.,.F.,
  (2,2),(0.,6.09),.PIECEWISE_BEZIER_KNOTS.);
#116 = CARTESIAN_POINT('',(-2.298163,-7.2770419,11.20905));
#117 = CARTESIAN_POINT('',(-2.298163,1.9231211,11.20905));
#118 = ORIENTED_EDGE('',*,*,#21,.F.);
#119 = ORIENTED_EDGE('',*,*,#120,.F.);
#120 = EDGE_CURVE('',#94,#22,#121,.T.);
#121 = B_SPLINE_CURVE_WITH_KNOTS('',1,(#122,#123),.UNSPECIFIED.,.F.,.F.,
  (2,2),(0.,6.09),.PIECEWISE_BEZIER_KNOTS.);
#122 = CARTESIAN_POINT('',(-2.298163,-7.2770419,0.10925));
#123 = CARTESIAN_POINT('',(-2.298163,1.9231211,0.10925));
#124 = B_SPLINE_SURFACE_WITH_KNOTS('',1,1,(
    (#125,#126)
    ,(#127,#128
    )),.UNSPECIFIED.,.F.,.F.,.F.,(2,2),(2,2),(0.,6.09),(-10.16,0.),
  .PIECEWISE_BEZIER_KNOTS.);
#125 = CARTESIAN_POINT('',(-2.298163,-7.2770419,11.20905));
#126 = CARTESIAN_POINT('',(-2.298163,-7.2770419,0.10925));
#127 = CARTESIAN_POINT('',(-2.298163,1.9231211,11.20905));
#128 = CARTESIAN_POINT('',(-2.298163,1.9231211,0.10925));
#129 = ADVANCED_FACE('',(#130),#136,.T.);
#130 = FACE_BOUND('',#131,.T.);
#131 = EDGE_LOOP('',(#132,#133,#134,#135));
#132 = ORIENTED_EDGE('',*,*,#44,.T.);
#133 = ORIENTED_EDGE('',*,*,#72,.T.);
#134 = ORIENTED_EDGE('',*,*,#100,.T.);
#135 = ORIENTED_EDGE('',*,*,#120,.T.);
#136 = B_SPLINE_SURFACE_WITH_KNOTS('',1,1,(
    (#137,#138)
    ,(#139,#140
    )),.UNSPECIFIED.,.F.,.F.,.F.,(2,2),(2,2),(-9.65,9.65),(-3.045,3.045)
  ,.PIECEWISE_BEZIER_KNOTS.);
#137 = CARTESIAN_POINT('',(19.551367,-7.2770419,0.10925));
#138 = CARTESIAN_POINT('',(19.551367,1.9231211,0.10925));
#139 = CARTESIAN_POINT('',(-2.298163,-7.2770419,0.10925));
#140 = CARTESIAN_POINT('',(-2.298163,1.9231211,0.10925));
#141 = ADVANCED_FACE('',(#142),#148,.F.);
#142 = FACE_BOUND('',#143,.F.);
#143 = EDGE_LOOP('',(#144,#145,#146,#147));
#144 = ORIENTED_EDGE('',*,*,#30,.T.);
#145 = ORIENTED_EDGE('',*,*,#58,.T.);
#146 = ORIENTED_EDGE('',*,*,#86,.T.);
#147 = ORIENTED_EDGE('',*,*,#114,.T.);
#148 = B_SPLINE_SURFACE_WITH_KNOTS('',1,1,(
    (#149,#150)
    ,(#151,#152
    )),.UNSPECIFIED.,.F.,.F.,.F.,(2,2),(2,2),(-9.65,9.65),(-3.045,3.045)
  ,.PIECEWISE_BEZIER_KNOTS.);
#149 = CARTESIAN_POINT('',(19.551367,-7.2770419,11.20905));
#150 = CARTESIAN_POINT('',(19.551367,1.9231211,11.20905));
#151 = CARTESIAN_POINT('',(-2.298163,-7.2770419,11.20905));
#152 = CARTESIAN_POINT('',(-2.298163,1.9231211,11.20905));
#153 = MANIFOLD_SOLID_BREP('',#154);
#154 = CLOSED_SHELL('',(#155,#203,#212));
#155 = ADVANCED_FACE('',(#156),#188,.T.);
#156 = FACE_BOUND('',#157,.T.);
#157 = EDGE_LOOP('',(#158,#170,#177,#187));
#158 = ORIENTED_EDGE('',*,*,#159,.F.);
#159 = EDGE_CURVE('',#160,#160,#162,.T.);
#160 = VERTEX_POINT('',#161);
#161 = CARTESIAN_POINT('',(0.3226485,-1.054542134099E-16,0.10925));
#162 = ( BOUNDED_CURVE() B_SPLINE_CURVE(2,(#163,#164,#165,#166,#167,#168
,#169),.UNSPECIFIED.,.T.,.F.) B_SPLINE_CURVE_WITH_KNOTS((1,2,2,2,2,1),(
    -2.094395102393,0.,2.094395102393,4.188790204786,6.28318530718,
8.377580409573),.UNSPECIFIED.) CURVE() GEOMETRIC_REPRESENTATION_ITEM() 
RATIONAL_B_SPLINE_CURVE((1.,0.5,1.,0.5,1.,0.5,1.)) REPRESENTATION_ITEM(
  '') );
#163 = CARTESIAN_POINT('',(0.3226485,0.,0.10925));
#164 = CARTESIAN_POINT('',(0.3226485,0.745733609173,0.10925));
#165 = CARTESIAN_POINT('',(-0.16132425,0.372866804587,0.10925));
#166 = CARTESIAN_POINT('',(-0.645297,1.054542134099E-16,0.10925));
#167 = CARTESIAN_POINT('',(-0.16132425,-0.372866804587,0.10925));
#168 = CARTESIAN_POINT('',(0.3226485,-0.745733609173,0.10925));
#169 = CARTESIAN_POINT('',(0.3226485,0.,0.10925));
#170 = ORIENTED_EDGE('',*,*,#171,.F.);
#171 = EDGE_CURVE('',#172,#160,#174,.T.);
#172 = VERTEX_POINT('',#173);
#173 = CARTESIAN_POINT('',(0.3226485,-1.054542134099E-16,-5.4625));
#174 = B_SPLINE_CURVE_WITH_KNOTS('',1,(#175,#176),.UNSPECIFIED.,.F.,.F.,
  (2,2),(0.,5.1),.PIECEWISE_BEZIER_KNOTS.);
#175 = CARTESIAN_POINT('',(0.3226485,-1.054542134099E-16,-5.4625));
#176 = CARTESIAN_POINT('',(0.3226485,-1.054542134099E-16,0.10925));
#177 = ORIENTED_EDGE('',*,*,#178,.T.);
#178 = EDGE_CURVE('',#172,#172,#179,.T.);
#179 = ( BOUNDED_CURVE() B_SPLINE_CURVE(2,(#180,#181,#182,#183,#184,#185
,#186),.UNSPECIFIED.,.T.,.F.) B_SPLINE_CURVE_WITH_KNOTS((1,2,2,2,2,1),(
    -2.094395102393,0.,2.094395102393,4.188790204786,6.28318530718,
8.377580409573),.UNSPECIFIED.) CURVE() GEOMETRIC_REPRESENTATION_ITEM() 
RATIONAL_B_SPLINE_CURVE((1.,0.5,1.,0.5,1.,0.5,1.)) REPRESENTATION_ITEM(
  '') );
#180 = CARTESIAN_POINT('',(0.3226485,0.,-5.4625));
#181 = CARTESIAN_POINT('',(0.3226485,0.745733609173,-5.4625));
#182 = CARTESIAN_POINT('',(-0.16132425,0.372866804587,-5.4625));
#183 = CARTESIAN_POINT('',(-0.645297,1.054542134099E-16,-5.4625));
#184 = CARTESIAN_POINT('',(-0.16132425,-0.372866804587,-5.4625));
#185 = CARTESIAN_POINT('',(0.3226485,-0.745733609173,-5.4625));
#186 = CARTESIAN_POINT('',(0.3226485,0.,-5.4625));
#187 = ORIENTED_EDGE('',*,*,#171,.T.);
#188 = ( BOUNDED_SURFACE() B_SPLINE_SURFACE(2,1,(
    (#189,#190)
    ,(#191,#192)
    ,(#193,#194)
    ,(#195,#196)
    ,(#197,#198)
    ,(#199,#200)
,(#201,#202
    )),.UNSPECIFIED.,.T.,.F.,.F.) B_SPLINE_SURFACE_WITH_KNOTS((1,2,2,2,2
    ,1),(2,2),(-2.094395102393,0.,2.094395102393,4.188790204786,
    6.28318530718,8.377580409573),(0.,5.1),.UNSPECIFIED.) 
GEOMETRIC_REPRESENTATION_ITEM() RATIONAL_B_SPLINE_SURFACE((
    (1.,1.)
    ,(0.5,0.5)
    ,(1.,1.)
    ,(0.5,0.5)
    ,(1.,1.)
    ,(0.5,0.5)
,(1.,1.))) REPRESENTATION_ITEM('') SURFACE() );
#189 = CARTESIAN_POINT('',(0.3226485,0.,-5.4625));
#190 = CARTESIAN_POINT('',(0.3226485,0.,0.10925));
#191 = CARTESIAN_POINT('',(0.3226485,0.745733609173,-5.4625));
#192 = CARTESIAN_POINT('',(0.3226485,0.745733609173,0.10925));
#193 = CARTESIAN_POINT('',(-0.16132425,0.372866804587,-5.4625));
#194 = CARTESIAN_POINT('',(-0.16132425,0.372866804587,0.10925));
#195 = CARTESIAN_POINT('',(-0.645297,1.054542134099E-16,-5.4625));
#196 = CARTESIAN_POINT('',(-0.645297,1.054542134099E-16,0.10925));
#197 = CARTESIAN_POINT('',(-0.16132425,-0.372866804587,-5.4625));
#198 = CARTESIAN_POINT('',(-0.16132425,-0.372866804587,0.10925));
#199 = CARTESIAN_POINT('',(0.3226485,-0.745733609173,-5.4625));
#200 = CARTESIAN_POINT('',(0.3226485,-0.745733609173,0.10925));
#201 = CARTESIAN_POINT('',(0.3226485,0.,-5.4625));
#202 = CARTESIAN_POINT('',(0.3226485,0.,0.10925));
#203 = ADVANCED_FACE('',(#204),#207,.T.);
#204 = FACE_BOUND('',#205,.T.);
#205 = EDGE_LOOP('',(#206));
#206 = ORIENTED_EDGE('',*,*,#159,.T.);
#207 = B_SPLINE_SURFACE_WITH_KNOTS('',1,1,(
    (#208,#209)
    ,(#210,#211
    )),.UNSPECIFIED.,.F.,.F.,.F.,(2,2),(2,2),(-0.285,0.285),(-0.285,
    0.285),.PIECEWISE_BEZIER_KNOTS.);
#208 = CARTESIAN_POINT('',(-0.3226485,-0.4305495,0.10925));
#209 = CARTESIAN_POINT('',(-0.3226485,0.4305495,0.10925));
#210 = CARTESIAN_POINT('',(0.3226485,-0.4305495,0.10925));
#211 = CARTESIAN_POINT('',(0.3226485,0.4305495,0.10925));
#212 = ADVANCED_FACE('',(#213),#216,.F.);
#213 = FACE_BOUND('',#214,.T.);
#214 = EDGE_LOOP('',(#215));
#215 = ORIENTED_EDGE('',*,*,#178,.F.);
#216 = B_SPLINE_SURFACE_WITH_KNOTS('',1,1,(
    (#217,#218)
    ,(#219,#220
    )),.UNSPECIFIED.,.F.,.F.,.F.,(2,2),(2,2),(-0.285,0.285),(-0.285,
    0.285),.PIECEWISE_BEZIER_KNOTS.);
#217 = CARTESIAN_POINT('',(-0.3226485,-0.4305495,-5.4625));
#218 = CARTESIAN_POINT('',(-0.3226485,0.4305495,-5.4625));
#219 = CARTESIAN_POINT('',(0.3226485,-0.4305495,-5.4625));
#220 = CARTESIAN_POINT('',(0.3226485,0.4305495,-5.4625));
#221 = MANIFOLD_SOLID_BREP('',#222);
#222 = CLOSED_SHELL('',(#223,#271,#280));
#223 = ADVANCED_FACE('',(#224),#256,.T.);
#224 = FACE_BOUND('',#225,.T.);
#225 = EDGE_LOOP('',(#226,#238,#245,#255));
#226 = ORIENTED_EDGE('',*,*,#227,.F.);
#227 = EDGE_CURVE('',#228,#228,#230,.T.);
#228 = VERTEX_POINT('',#229);
#229 = CARTESIAN_POINT('',(3.1981825,-1.054542134099E-16,0.10925));
#230 = ( BOUNDED_CURVE() B_SPLINE_CURVE(2,(#231,#232,#233,#234,#235,#236
,#237),.UNSPECIFIED.,.T.,.F.) B_SPLINE_CURVE_WITH_KNOTS((1,2,2,2,2,1),(
    -2.094395102393,0.,2.094395102393,4.188790204786,6.28318530718,
8.377580409573),.UNSPECIFIED.) CURVE() GEOMETRIC_REPRESENTATION_ITEM() 
RATIONAL_B_SPLINE_CURVE((1.,0.5,1.,0.5,1.,0.5,1.)) REPRESENTATION_ITEM(
  '') );
#231 = CARTESIAN_POINT('',(3.1981825,0.,0.10925));
#232 = CARTESIAN_POINT('',(3.1981825,0.745733609173,0.10925));
#233 = CARTESIAN_POINT('',(2.71420975,0.372866804587,0.10925));
#234 = CARTESIAN_POINT('',(2.230237,1.054542134099E-16,0.10925));
#235 = CARTESIAN_POINT('',(2.71420975,-0.372866804587,0.10925));
#236 = CARTESIAN_POINT('',(3.1981825,-0.745733609173,0.10925));
#237 = CARTESIAN_POINT('',(3.1981825,0.,0.10925));
#238 = ORIENTED_EDGE('',*,*,#239,.F.);
#239 = EDGE_CURVE('',#240,#228,#242,.T.);
#240 = VERTEX_POINT('',#241);
#241 = CARTESIAN_POINT('',(3.1981825,-1.054542134099E-16,-5.4625));
#242 = B_SPLINE_CURVE_WITH_KNOTS('',1,(#243,#244),.UNSPECIFIED.,.F.,.F.,
  (2,2),(0.,5.1),.PIECEWISE_BEZIER_KNOTS.);
#243 = CARTESIAN_POINT('',(3.1981825,-1.054542134099E-16,-5.4625));
#244 = CARTESIAN_POINT('',(3.1981825,-1.054542134099E-16,0.10925));
#245 = ORIENTED_EDGE('',*,*,#246,.T.);
#246 = EDGE_CURVE('',#240,#240,#247,.T.);
#247 = ( BOUNDED_CURVE() B_SPLINE_CURVE(2,(#248,#249,#250,#251,#252,#253
,#254),.UNSPECIFIED.,.T.,.F.) B_SPLINE_CURVE_WITH_KNOTS((1,2,2,2,2,1),(
    -2.094395102393,0.,2.094395102393,4.188790204786,6.28318530718,
8.377580409573),.UNSPECIFIED.) CURVE() GEOMETRIC_REPRESENTATION_ITEM() 
RATIONAL_B_SPLINE_CURVE((1.,0.5,1.,0.5,1.,0.5,1.)) REPRESENTATION_ITEM(
  '') );
#248 = CARTESIAN_POINT('',(3.1981825,0.,-5.4625));
#249 = CARTESIAN_POINT('',(3.1981825,0.745733609173,-5.4625));
#250 = CARTESIAN_POINT('',(2.71420975,0.372866804587,-5.4625));
#251 = CARTESIAN_POINT('',(2.230237,1.054542134099E-16,-5.4625));
#252 = CARTESIAN_POINT('',(2.71420975,-0.372866804587,-5.4625));
#253 = CARTESIAN_POINT('',(3.1981825,-0.745733609173,-5.4625));
#254 = CARTESIAN_POINT('',(3.1981825,0.,-5.4625));
#255 = ORIENTED_EDGE('',*,*,#239,.T.);
#256 = ( BOUNDED_SURFACE() B_SPLINE_SURFACE(2,1,(
    (#257,#258)
    ,(#259,#260)
    ,(#261,#262)
    ,(#263,#264)
    ,(#265,#266)
    ,(#267,#268)
,(#269,#270
    )),.UNSPECIFIED.,.T.,.F.,.F.) B_SPLINE_SURFACE_WITH_KNOTS((1,2,2,2,2
    ,1),(2,2),(-2.094395102393,0.,2.094395102393,4.188790204786,
    6.28318530718,8.377580409573),(0.,5.1),.UNSPECIFIED.) 
GEOMETRIC_REPRESENTATION_ITEM() RATIONAL_B_SPLINE_SURFACE((
    (1.,1.)
    ,(0.5,0.5)
    ,(1.,1.)
    ,(0.5,0.5)
    ,(1.,1.)
    ,(0.5,0.5)
,(1.,1.))) REPRESENTATION_ITEM('') SURFACE() );
#257 = CARTESIAN_POINT('',(3.1981825,0.,-5.4625));
#258 = CARTESIAN_POINT('',(3.1981825,0.,0.10925));
#259 = CARTESIAN_POINT('',(3.1981825,0.745733609173,-5.4625));
#260 = CARTESIAN_POINT('',(3.1981825,0.745733609173,0.10925));
#261 = CARTESIAN_POINT('',(2.71420975,0.372866804587,-5.4625));
#262 = CARTESIAN_POINT('',(2.71420975,0.372866804587,0.10925));
#263 = CARTESIAN_POINT('',(2.230237,1.054542134099E-16,-5.4625));
#264 = CARTESIAN_POINT('',(2.230237,1.054542134099E-16,0.10925));
#265 = CARTESIAN_POINT('',(2.71420975,-0.372866804587,-5.4625));
#266 = CARTESIAN_POINT('',(2.71420975,-0.372866804587,0.10925));
#267 = CARTESIAN_POINT('',(3.1981825,-0.745733609173,-5.4625));
#268 = CARTESIAN_POINT('',(3.1981825,-0.745733609173,0.10925));
#269 = CARTESIAN_POINT('',(3.1981825,0.,-5.4625));
#270 = CARTESIAN_POINT('',(3.1981825,0.,0.10925));
#271 = ADVANCED_FACE('',(#272),#275,.T.);
#272 = FACE_BOUND('',#273,.T.);
#273 = EDGE_LOOP('',(#274));
#274 = ORIENTED_EDGE('',*,*,#227,.T.);
#275 = B_SPLINE_SURFACE_WITH_KNOTS('',1,1,(
    (#276,#277)
    ,(#278,#279
    )),.UNSPECIFIED.,.F.,.F.,.F.,(2,2),(2,2),(-0.285,0.285),(-0.285,
    0.285),.PIECEWISE_BEZIER_KNOTS.);
#276 = CARTESIAN_POINT('',(2.5528855,-0.4305495,0.10925));
#277 = CARTESIAN_POINT('',(2.5528855,0.4305495,0.10925));
#278 = CARTESIAN_POINT('',(3.1981825,-0.4305495,0.10925));
#279 = CARTESIAN_POINT('',(3.1981825,0.4305495,0.10925));
#280 = ADVANCED_FACE('',(#281),#284,.F.);
#281 = FACE_BOUND('',#282,.T.);
#282 = EDGE_LOOP('',(#283));
#283 = ORIENTED_EDGE('',*,*,#246,.F.);
#284 = B_SPLINE_SURFACE_WITH_KNOTS('',1,1,(
    (#285,#286)
    ,(#287,#288
    )),.UNSPECIFIED.,.F.,.F.,.F.,(2,2),(2,2),(-0.285,0.285),(-0.285,
    0.285),.PIECEWISE_BEZIER_KNOTS.);
#285 = CARTESIAN_POINT('',(2.5528855,-0.4305495,-5.4625));
#286 = CARTESIAN_POINT('',(2.5528855,0.4305495,-5.4625));
#287 = CARTESIAN_POINT('',(3.1981825,-0.4305495,-5.4625));
#288 = CARTESIAN_POINT('',(3.1981825,0.4305495,-5.4625));
#289 = MANIFOLD_SOLID_BREP('',#290);
#290 = CLOSED_SHELL('',(#291,#339,#348));
#291 = ADVANCED_FACE('',(#292),#324,.T.);
#292 = FACE_BOUND('',#293,.T.);
#293 = EDGE_LOOP('',(#294,#306,#313,#323));
#294 = ORIENTED_EDGE('',*,*,#295,.F.);
#295 = EDGE_CURVE('',#296,#296,#298,.T.);
#296 = VERTEX_POINT('',#297);
#297 = CARTESIAN_POINT('',(8.9492505,-1.054542134099E-16,0.10925));
#298 = ( BOUNDED_CURVE() B_SPLINE_CURVE(2,(#299,#300,#301,#302,#303,#304
,#305),.UNSPECIFIED.,.T.,.F.) B_SPLINE_CURVE_WITH_KNOTS((1,2,2,2,2,1),(
    -2.094395102393,0.,2.094395102393,4.188790204786,6.28318530718,
8.377580409573),.UNSPECIFIED.) CURVE() GEOMETRIC_REPRESENTATION_ITEM() 
RATIONAL_B_SPLINE_CURVE((1.,0.5,1.,0.5,1.,0.5,1.)) REPRESENTATION_ITEM(
  '') );
#299 = CARTESIAN_POINT('',(8.9492505,0.,0.10925));
#300 = CARTESIAN_POINT('',(8.9492505,0.745733609173,0.10925));
#301 = CARTESIAN_POINT('',(8.46527775,0.372866804587,0.10925));
#302 = CARTESIAN_POINT('',(7.981305,1.054542134099E-16,0.10925));
#303 = CARTESIAN_POINT('',(8.46527775,-0.372866804587,0.10925));
#304 = CARTESIAN_POINT('',(8.9492505,-0.745733609173,0.10925));
#305 = CARTESIAN_POINT('',(8.9492505,0.,0.10925));
#306 = ORIENTED_EDGE('',*,*,#307,.F.);
#307 = EDGE_CURVE('',#308,#296,#310,.T.);
#308 = VERTEX_POINT('',#309);
#309 = CARTESIAN_POINT('',(8.9492505,-1.054542134099E-16,-5.4625));
#310 = B_SPLINE_CURVE_WITH_KNOTS('',1,(#311,#312),.UNSPECIFIED.,.F.,.F.,
  (2,2),(0.,5.1),.PIECEWISE_BEZIER_KNOTS.);
#311 = CARTESIAN_POINT('',(8.9492505,-1.054542134099E-16,-5.4625));
#312 = CARTESIAN_POINT('',(8.9492505,-1.054542134099E-16,0.10925));
#313 = ORIENTED_EDGE('',*,*,#314,.T.);
#314 = EDGE_CURVE('',#308,#308,#315,.T.);
#315 = ( BOUNDED_CURVE() B_SPLINE_CURVE(2,(#316,#317,#318,#319,#320,#321
,#322),.UNSPECIFIED.,.T.,.F.) B_SPLINE_CURVE_WITH_KNOTS((1,2,2,2,2,1),(
    -2.094395102393,0.,2.094395102393,4.188790204786,6.28318530718,
8.377580409573),.UNSPECIFIED.) CURVE() GEOMETRIC_REPRESENTATION_ITEM() 
RATIONAL_B_SPLINE_CURVE((1.,0.5,1.,0.5,1.,0.5,1.)) REPRESENTATION_ITEM(
  '') );
#316 = CARTESIAN_POINT('',(8.9492505,0.,-5.4625));
#317 = CARTESIAN_POINT('',(8.9492505,0.745733609173,-5.4625));
#318 = CARTESIAN_POINT('',(8.46527775,0.372866804587,-5.4625));
#319 = CARTESIAN_POINT('',(7.981305,1.054542134099E-16,-5.4625));
#320 = CARTESIAN_POINT('',(8.46527775,-0.372866804587,-5.4625));
#321 = CARTESIAN_POINT('',(8.9492505,-0.745733609173,-5.4625));
#322 = CARTESIAN_POINT('',(8.9492505,0.,-5.4625));
#323 = ORIENTED_EDGE('',*,*,#307,.T.);
#324 = ( BOUNDED_SURFACE() B_SPLINE_SURFACE(2,1,(
    (#325,#326)
    ,(#327,#328)
    ,(#329,#330)
    ,(#331,#332)
    ,(#333,#334)
    ,(#335,#336)
,(#337,#338
    )),.UNSPECIFIED.,.T.,.F.,.F.) B_SPLINE_SURFACE_WITH_KNOTS((1,2,2,2,2
    ,1),(2,2),(-2.094395102393,0.,2.094395102393,4.188790204786,
    6.28318530718,8.377580409573),(0.,5.1),.UNSPECIFIED.) 
GEOMETRIC_REPRESENTATION_ITEM() RATIONAL_B_SPLINE_SURFACE((
    (1.,1.)
    ,(0.5,0.5)
    ,(1.,1.)
    ,(0.5,0.5)
    ,(1.,1.)
    ,(0.5,0.5)
,(1.,1.))) REPRESENTATION_ITEM('') SURFACE() );
#325 = CARTESIAN_POINT('',(8.9492505,0.,-5.4625));
#326 = CARTESIAN_POINT('',(8.9492505,0.,0.10925));
#327 = CARTESIAN_POINT('',(8.9492505,0.745733609173,-5.4625));
#328 = CARTESIAN_POINT('',(8.9492505,0.745733609173,0.10925));
#329 = CARTESIAN_POINT('',(8.46527775,0.372866804587,-5.4625));
#330 = CARTESIAN_POINT('',(8.46527775,0.372866804587,0.10925));
#331 = CARTESIAN_POINT('',(7.981305,1.054542134099E-16,-5.4625));
#332 = CARTESIAN_POINT('',(7.981305,1.054542134099E-16,0.10925));
#333 = CARTESIAN_POINT('',(8.46527775,-0.372866804587,-5.4625));
#334 = CARTESIAN_POINT('',(8.46527775,-0.372866804587,0.10925));
#335 = CARTESIAN_POINT('',(8.9492505,-0.745733609173,-5.4625));
#336 = CARTESIAN_POINT('',(8.9492505,-0.745733609173,0.10925));
#337 = CARTESIAN_POINT('',(8.9492505,0.,-5.4625));
#338 = CARTESIAN_POINT('',(8.9492505,0.,0.10925));
#339 = ADVANCED_FACE('',(#340),#343,.T.);
#340 = FACE_BOUND('',#341,.T.);
#341 = EDGE_LOOP('',(#342));
#342 = ORIENTED_EDGE('',*,*,#295,.T.);
#343 = B_SPLINE_SURFACE_WITH_KNOTS('',1,1,(
    (#344,#345)
    ,(#346,#347
    )),.UNSPECIFIED.,.F.,.F.,.F.,(2,2),(2,2),(-0.285,0.285),(-0.285,
    0.285),.PIECEWISE_BEZIER_KNOTS.);
#344 = CARTESIAN_POINT('',(8.3039535,-0.4305495,0.10925));
#345 = CARTESIAN_POINT('',(8.3039535,0.4305495,0.10925));
#346 = CARTESIAN_POINT('',(8.9492505,-0.4305495,0.10925));
#347 = CARTESIAN_POINT('',(8.9492505,0.4305495,0.10925));
#348 = ADVANCED_FACE('',(#349),#352,.F.);
#349 = FACE_BOUND('',#350,.T.);
#350 = EDGE_LOOP('',(#351));
#351 = ORIENTED_EDGE('',*,*,#314,.F.);
#352 = B_SPLINE_SURFACE_WITH_KNOTS('',1,1,(
    (#353,#354)
    ,(#355,#356
    )),.UNSPECIFIED.,.F.,.F.,.F.,(2,2),(2,2),(-0.285,0.285),(-0.285,
    0.285),.PIECEWISE_BEZIER_KNOTS.);
#353 = CARTESIAN_POINT('',(8.3039535,-0.4305495,-5.4625));
#354 = CARTESIAN_POINT('',(8.3039535,0.4305495,-5.4625));
#355 = CARTESIAN_POINT('',(8.9492505,-0.4305495,-5.4625));
#356 = CARTESIAN_POINT('',(8.9492505,0.4305495,-5.4625));
#357 = MANIFOLD_SOLID_BREP('',#358);
#358 = CLOSED_SHELL('',(#359,#407,#416));
#359 = ADVANCED_FACE('',(#360),#392,.T.);
#360 = FACE_BOUND('',#361,.T.);
#361 = EDGE_LOOP('',(#362,#374,#381,#391));
#362 = ORIENTED_EDGE('',*,*,#363,.F.);
#363 = EDGE_CURVE('',#364,#364,#366,.T.);
#364 = VERTEX_POINT('',#365);
#365 = CARTESIAN_POINT('',(11.8247845,-1.054542134099E-16,0.10925));
#366 = ( BOUNDED_CURVE() B_SPLINE_CURVE(2,(#367,#368,#369,#370,#371,#372
,#373),.UNSPECIFIED.,.T.,.F.) B_SPLINE_CURVE_WITH_KNOTS((1,2,2,2,2,1),(
    -2.094395102393,0.,2.094395102393,4.188790204786,6.28318530718,
8.377580409573),.UNSPECIFIED.) CURVE() GEOMETRIC_REPRESENTATION_ITEM() 
RATIONAL_B_SPLINE_CURVE((1.,0.5,1.,0.5,1.,0.5,1.)) REPRESENTATION_ITEM(
  '') );
#367 = CARTESIAN_POINT('',(11.8247845,0.,0.10925));
#368 = CARTESIAN_POINT('',(11.8247845,0.745733609173,0.10925));
#369 = CARTESIAN_POINT('',(11.34081175,0.372866804587,0.10925));
#370 = CARTESIAN_POINT('',(10.856839,1.054542134099E-16,0.10925));
#371 = CARTESIAN_POINT('',(11.34081175,-0.372866804587,0.10925));
#372 = CARTESIAN_POINT('',(11.8247845,-0.745733609173,0.10925));
#373 = CARTESIAN_POINT('',(11.8247845,0.,0.10925));
#374 = ORIENTED_EDGE('',*,*,#375,.F.);
#375 = EDGE_CURVE('',#376,#364,#378,.T.);
#376 = VERTEX_POINT('',#377);
#377 = CARTESIAN_POINT('',(11.8247845,-1.054542134099E-16,-5.4625));
#378 = B_SPLINE_CURVE_WITH_KNOTS('',1,(#379,#380),.UNSPECIFIED.,.F.,.F.,
  (2,2),(0.,5.1),.PIECEWISE_BEZIER_KNOTS.);
#379 = CARTESIAN_POINT('',(11.8247845,-1.054542134099E-16,-5.4625));
#380 = CARTESIAN_POINT('',(11.8247845,-1.054542134099E-16,0.10925));
#381 = ORIENTED_EDGE('',*,*,#382,.T.);
#382 = EDGE_CURVE('',#376,#376,#383,.T.);
#383 = ( BOUNDED_CURVE() B_SPLINE_CURVE(2,(#384,#385,#386,#387,#388,#389
,#390),.UNSPECIFIED.,.T.,.F.) B_SPLINE_CURVE_WITH_KNOTS((1,2,2,2,2,1),(
    -2.094395102393,0.,2.094395102393,4.188790204786,6.28318530718,
8.377580409573),.UNSPECIFIED.) CURVE() GEOMETRIC_REPRESENTATION_ITEM() 
RATIONAL_B_SPLINE_CURVE((1.,0.5,1.,0.5,1.,0.5,1.)) REPRESENTATION_ITEM(
  '') );
#384 = CARTESIAN_POINT('',(11.8247845,0.,-5.4625));
#385 = CARTESIAN_POINT('',(11.8247845,0.745733609173,-5.4625));
#386 = CARTESIAN_POINT('',(11.34081175,0.372866804587,-5.4625));
#387 = CARTESIAN_POINT('',(10.856839,1.054542134099E-16,-5.4625));
#388 = CARTESIAN_POINT('',(11.34081175,-0.372866804587,-5.4625));
#389 = CARTESIAN_POINT('',(11.8247845,-0.745733609173,-5.4625));
#390 = CARTESIAN_POINT('',(11.8247845,0.,-5.4625));
#391 = ORIENTED_EDGE('',*,*,#375,.T.);
#392 = ( BOUNDED_SURFACE() B_SPLINE_SURFACE(2,1,(
    (#393,#394)
    ,(#395,#396)
    ,(#397,#398)
    ,(#399,#400)
    ,(#401,#402)
    ,(#403,#404)
,(#405,#406
    )),.UNSPECIFIED.,.T.,.F.,.F.) B_SPLINE_SURFACE_WITH_KNOTS((1,2,2,2,2
    ,1),(2,2),(-2.094395102393,0.,2.094395102393,4.188790204786,
    6.28318530718,8.377580409573),(0.,5.1),.UNSPECIFIED.) 
GEOMETRIC_REPRESENTATION_ITEM() RATIONAL_B_SPLINE_SURFACE((
    (1.,1.)
    ,(0.5,0.5)
    ,(1.,1.)
    ,(0.5,0.5)
    ,(1.,1.)
    ,(0.5,0.5)
,(1.,1.))) REPRESENTATION_ITEM('') SURFACE() );
#393 = CARTESIAN_POINT('',(11.8247845,0.,-5.4625));
#394 = CARTESIAN_POINT('',(11.8247845,0.,0.10925));
#395 = CARTESIAN_POINT('',(11.8247845,0.745733609173,-5.4625));
#396 = CARTESIAN_POINT('',(11.8247845,0.745733609173,0.10925));
#397 = CARTESIAN_POINT('',(11.34081175,0.372866804587,-5.4625));
#398 = CARTESIAN_POINT('',(11.34081175,0.372866804587,0.10925));
#399 = CARTESIAN_POINT('',(10.856839,1.054542134099E-16,-5.4625));
#400 = CARTESIAN_POINT('',(10.856839,1.054542134099E-16,0.10925));
#401 = CARTESIAN_POINT('',(11.34081175,-0.372866804587,-5.4625));
#402 = CARTESIAN_POINT('',(11.34081175,-0.372866804587,0.10925));
#403 = CARTESIAN_POINT('',(11.8247845,-0.745733609173,-5.4625));
#404 = CARTESIAN_POINT('',(11.8247845,-0.745733609173,0.10925));
#405 = CARTESIAN_POINT('',(11.8247845,0.,-5.4625));
#406 = CARTESIAN_POINT('',(11.8247845,0.,0.10925));
#407 = ADVANCED_FACE('',(#408),#411,.T.);
#408 = FACE_BOUND('',#409,.T.);
#409 = EDGE_LOOP('',(#410));
#410 = ORIENTED_EDGE('',*,*,#363,.T.);
#411 = B_SPLINE_SURFACE_WITH_KNOTS('',1,1,(
    (#412,#413)
    ,(#414,#415
    )),.UNSPECIFIED.,.F.,.F.,.F.,(2,2),(2,2),(-0.285,0.285),(-0.285,
    0.285),.PIECEWISE_BEZIER_KNOTS.);
#412 = CARTESIAN_POINT('',(11.1794875,-0.4305495,0.10925));
#413 = CARTESIAN_POINT('',(11.1794875,0.4305495,0.10925));
#414 = CARTESIAN_POINT('',(11.8247845,-0.4305495,0.10925));
#415 = CARTESIAN_POINT('',(11.8247845,0.4305495,0.10925));
#416 = ADVANCED_FACE('',(#417),#420,.F.);
#417 = FACE_BOUND('',#418,.T.);
#418 = EDGE_LOOP('',(#419));
#419 = ORIENTED_EDGE('',*,*,#382,.F.);
#420 = B_SPLINE_SURFACE_WITH_KNOTS('',1,1,(
    (#421,#422)
    ,(#423,#424
    )),.UNSPECIFIED.,.F.,.F.,.F.,(2,2),(2,2),(-0.285,0.285),(-0.285,
    0.285),.PIECEWISE_BEZIER_KNOTS.);
#421 = CARTESIAN_POINT('',(11.1794875,-0.4305495,-5.4625));
#422 = CARTESIAN_POINT('',(11.1794875,0.4305495,-5.4625));
#423 = CARTESIAN_POINT('',(11.8247845,-0.4305495,-5.4625));
#424 = CARTESIAN_POINT('',(11.8247845,0.4305495,-5.4625));
#425 = MANIFOLD_SOLID_BREP('',#426);
#426 = CLOSED_SHELL('',(#427,#475,#484));
#427 = ADVANCED_FACE('',(#428),#460,.T.);
#428 = FACE_BOUND('',#429,.T.);
#429 = EDGE_LOOP('',(#430,#442,#449,#459));
#430 = ORIENTED_EDGE('',*,*,#431,.F.);
#431 = EDGE_CURVE('',#432,#432,#434,.T.);
#432 = VERTEX_POINT('',#433);
#433 = CARTESIAN_POINT('',(14.7003185,-1.054542134099E-16,0.10925));
#434 = ( BOUNDED_CURVE() B_SPLINE_CURVE(2,(#435,#436,#437,#438,#439,#440
,#441),.UNSPECIFIED.,.T.,.F.) B_SPLINE_CURVE_WITH_KNOTS((1,2,2,2,2,1),(
    -2.094395102393,0.,2.094395102393,4.188790204786,6.28318530718,
8.377580409573),.UNSPECIFIED.) CURVE() GEOMETRIC_REPRESENTATION_ITEM() 
RATIONAL_B_SPLINE_CURVE((1.,0.5,1.,0.5,1.,0.5,1.)) REPRESENTATION_ITEM(
  '') );
#435 = CARTESIAN_POINT('',(14.7003185,0.,0.10925));
#436 = CARTESIAN_POINT('',(14.7003185,0.745733609173,0.10925));
#437 = CARTESIAN_POINT('',(14.21634575,0.372866804587,0.10925));
#438 = CARTESIAN_POINT('',(13.732373,1.054542134099E-16,0.10925));
#439 = CARTESIAN_POINT('',(14.21634575,-0.372866804587,0.10925));
#440 = CARTESIAN_POINT('',(14.7003185,-0.745733609173,0.10925));
#441 = CARTESIAN_POINT('',(14.7003185,0.,0.10925));
#442 = ORIENTED_EDGE('',*,*,#443,.F.);
#443 = EDGE_CURVE('',#444,#432,#446,.T.);
#444 = VERTEX_POINT('',#445);
#445 = CARTESIAN_POINT('',(14.7003185,-1.054542134099E-16,-5.4625));
#446 = B_SPLINE_CURVE_WITH_KNOTS('',1,(#447,#448),.UNSPECIFIED.,.F.,.F.,
  (2,2),(0.,5.1),.PIECEWISE_BEZIER_KNOTS.);
#447 = CARTESIAN_POINT('',(14.7003185,-1.054542134099E-16,-5.4625));
#448 = CARTESIAN_POINT('',(14.7003185,-1.054542134099E-16,0.10925));
#449 = ORIENTED_EDGE('',*,*,#450,.T.);
#450 = EDGE_CURVE('',#444,#444,#451,.T.);
#451 = ( BOUNDED_CURVE() B_SPLINE_CURVE(2,(#452,#453,#454,#455,#456,#457
,#458),.UNSPECIFIED.,.T.,.F.) B_SPLINE_CURVE_WITH_KNOTS((1,2,2,2,2,1),(
    -2.094395102393,0.,2.094395102393,4.188790204786,6.28318530718,
8.377580409573),.UNSPECIFIED.) CURVE() GEOMETRIC_REPRESENTATION_ITEM() 
RATIONAL_B_SPLINE_CURVE((1.,0.5,1.,0.5,1.,0.5,1.)) REPRESENTATION_ITEM(
  '') );
#452 = CARTESIAN_POINT('',(14.7003185,0.,-5.4625));
#453 = CARTESIAN_POINT('',(14.7003185,0.745733609173,-5.4625));
#454 = CARTESIAN_POINT('',(14.21634575,0.372866804587,-5.4625));
#455 = CARTESIAN_POINT('',(13.732373,1.054542134099E-16,-5.4625));
#456 = CARTESIAN_POINT('',(14.21634575,-0.372866804587,-5.4625));
#457 = CARTESIAN_POINT('',(14.7003185,-0.745733609173,-5.4625));
#458 = CARTESIAN_POINT('',(14.7003185,0.,-5.4625));
#459 = ORIENTED_EDGE('',*,*,#443,.T.);
#460 = ( BOUNDED_SURFACE() B_SPLINE_SURFACE(2,1,(
    (#461,#462)
    ,(#463,#464)
    ,(#465,#466)
    ,(#467,#468)
    ,(#469,#470)
    ,(#471,#472)
,(#473,#474
    )),.UNSPECIFIED.,.T.,.F.,.F.) B_SPLINE_SURFACE_WITH_KNOTS((1,2,2,2,2
    ,1),(2,2),(-2.094395102393,0.,2.094395102393,4.188790204786,
    6.28318530718,8.377580409573),(0.,5.1),.UNSPECIFIED.) 
GEOMETRIC_REPRESENTATION_ITEM() RATIONAL_B_SPLINE_SURFACE((
    (1.,1.)
    ,(0.5,0.5)
    ,(1.,1.)
    ,(0.5,0.5)
    ,(1.,1.)
    ,(0.5,0.5)
,(1.,1.))) REPRESENTATION_ITEM('') SURFACE() );
#461 = CARTESIAN_POINT('',(14.7003185,0.,-5.4625));
#462 = CARTESIAN_POINT('',(14.7003185,0.,0.10925));
#463 = CARTESIAN_POINT('',(14.7003185,0.745733609173,-5.4625));
#464 = CARTESIAN_POINT('',(14.7003185,0.745733609173,0.10925));
#465 = CARTESIAN_POINT('',(14.21634575,0.372866804587,-5.4625));
#466 = CARTESIAN_POINT('',(14.21634575,0.372866804587,0.10925));
#467 = CARTESIAN_POINT('',(13.732373,1.054542134099E-16,-5.4625));
#468 = CARTESIAN_POINT('',(13.732373,1.054542134099E-16,0.10925));
#469 = CARTESIAN_POINT('',(14.21634575,-0.372866804587,-5.4625));
#470 = CARTESIAN_POINT('',(14.21634575,-0.372866804587,0.10925));
#471 = CARTESIAN_POINT('',(14.7003185,-0.745733609173,-5.4625));
#472 = CARTESIAN_POINT('',(14.7003185,-0.745733609173,0.10925));
#473 = CARTESIAN_POINT('',(14.7003185,0.,-5.4625));
#474 = CARTESIAN_POINT('',(14.7003185,0.,0.10925));
#475 = ADVANCED_FACE('',(#476),#479,.T.);
#476 = FACE_BOUND('',#477,.T.);
#477 = EDGE_LOOP('',(#478));
#478 = ORIENTED_EDGE('',*,*,#431,.T.);
#479 = B_SPLINE_SURFACE_WITH_KNOTS('',1,1,(
    (#480,#481)
    ,(#482,#483
    )),.UNSPECIFIED.,.F.,.F.,.F.,(2,2),(2,2),(-0.285,0.285),(-0.285,
    0.285),.PIECEWISE_BEZIER_KNOTS.);
#480 = CARTESIAN_POINT('',(14.0550215,-0.4305495,0.10925));
#481 = CARTESIAN_POINT('',(14.0550215,0.4305495,0.10925));
#482 = CARTESIAN_POINT('',(14.7003185,-0.4305495,0.10925));
#483 = CARTESIAN_POINT('',(14.7003185,0.4305495,0.10925));
#484 = ADVANCED_FACE('',(#485),#488,.F.);
#485 = FACE_BOUND('',#486,.T.);
#486 = EDGE_LOOP('',(#487));
#487 = ORIENTED_EDGE('',*,*,#450,.F.);
#488 = B_SPLINE_SURFACE_WITH_KNOTS('',1,1,(
    (#489,#490)
    ,(#491,#492
    )),.UNSPECIFIED.,.F.,.F.,.F.,(2,2),(2,2),(-0.285,0.285),(-0.285,
    0.285),.PIECEWISE_BEZIER_KNOTS.);
#489 = CARTESIAN_POINT('',(14.0550215,-0.4305495,-5.4625));
#490 = CARTESIAN_POINT('',(14.0550215,0.4305495,-5.4625));
#491 = CARTESIAN_POINT('',(14.7003185,-0.4305495,-5.4625));
#492 = CARTESIAN_POINT('',(14.7003185,0.4305495,-5.4625));
#493 = ( GEOMETRIC_REPRESENTATION_CONTEXT(3) 
GLOBAL_UNCERTAINTY_ASSIGNED_CONTEXT((#497)) GLOBAL_UNIT_ASSIGNED_CONTEXT
((#494,#495,#496)) REPRESENTATION_CONTEXT('Context #1',
  '3D Context with UNIT and UNCERTAINTY') );
#494 = ( LENGTH_UNIT() NAMED_UNIT(*) SI_UNIT(.MILLI.,.METRE.) );
#495 = ( NAMED_UNIT(*) PLANE_ANGLE_UNIT() SI_UNIT($,.RADIAN.) );
#496 = ( NAMED_UNIT(*) SI_UNIT($,.STERADIAN.) SOLID_ANGLE_UNIT() );
#497 = UNCERTAINTY_MEASURE_WITH_UNIT(LENGTH_MEASURE(2.E-07),#494,
  'distance_accuracy_value','confusion accuracy');
#498 = PRODUCT_RELATED_PRODUCT_CATEGORY('part',$,(#7));
ENDSEC;
END-ISO-10303-21;
